<svg width="32" height="32" viewBox="0 0 32 32" fill="none" xmlns="http://www.w3.org/2000/svg">
<g clip-path="url(#clip0_12_9744)">
<path d="M29.3313 3.86279C27.7019 2.22262 25.5623 1.31934 23.3068 1.31934C20.3133 1.31934 17.5749 2.94798 15.9999 5.52691C14.425 2.94798 11.6866 1.31934 8.69314 1.31934C6.36377 1.31934 4.17766 2.27873 2.53773 4.02071C0.917259 5.74205 0.0160952 8.0314 0.000135492 10.4671C-0.0240535 14.1648 2.59527 18.6773 7.7853 23.8793C11.5672 27.6698 15.2937 30.3884 15.4505 30.5023C15.6144 30.6213 15.8072 30.6807 16 30.6807C16.1938 30.6807 16.3878 30.6206 16.5521 30.5003C16.7077 30.3864 20.4073 27.6682 24.1751 23.878C29.343 18.6795 31.9756 14.1716 31.9998 10.4793C32.0162 7.96126 31.0686 5.61144 29.3313 3.86279ZM22.8654 22.5427C20.0323 25.395 17.169 27.6745 15.998 28.5748C14.8208 27.6758 11.9376 25.3954 9.09244 22.5414C4.34729 17.7814 1.84997 13.6103 1.87042 10.4793C1.8832 8.51742 2.60388 6.67906 3.89948 5.30272C5.18231 3.9401 6.88476 3.18962 8.6932 3.18962C11.5655 3.18962 14.1455 5.13471 15.1131 8.02965C15.2406 8.41113 15.5978 8.66835 16.0001 8.66835C16.4023 8.66835 16.7595 8.41113 16.887 8.02965C17.8546 5.13471 20.4346 3.18962 23.3069 3.18962C25.0606 3.18962 26.7289 3.89683 28.0047 5.1809C29.3882 6.57351 30.1428 8.45084 30.1296 10.4671C30.109 13.6034 27.5971 17.7791 22.8654 22.5427Z" fill="white"/>
<path d="M26.6778 6.49924C25.7557 5.57114 24.5586 5.06006 23.3069 5.06006C22.7904 5.06006 22.3717 5.47875 22.3717 5.9952C22.3717 6.51165 22.7904 6.93034 23.3069 6.93034C24.0567 6.93034 24.7827 7.24536 25.351 7.81741C26.0271 8.49788 26.3957 9.43028 26.389 10.4428C26.3857 10.9592 26.8016 11.3807 27.318 11.384C27.3201 11.3841 27.3221 11.3841 27.3243 11.3841C27.8379 11.3841 28.2559 10.9695 28.2593 10.4551C28.2692 8.94058 27.7075 7.53575 26.6778 6.49924Z" fill="white"/>
</g>
<defs>
<clipPath id="clip0_12_9744">
<rect width="32" height="32" fill="white"/>
</clipPath>
</defs>
</svg>
