<svg width="29" height="32" viewBox="0 0 29 32" fill="none" xmlns="http://www.w3.org/2000/svg">
<path d="M4.13257 5.815C3.48386 6.03555 3.04759 6.64468 3.04759 7.32985V18.0783C3.04759 24.5535 8.17559 29.8015 14.5004 29.8015C20.8252 29.8015 25.9532 24.5535 25.9532 18.0783V7.34006C25.9532 6.65304 25.5146 6.0427 24.8635 5.8236L14.9445 2.48607C14.6118 2.37412 14.2516 2.37469 13.9192 2.48768L4.13257 5.815ZM13.9162 0.173993C14.2484 0.0610586 14.6086 0.0604799 14.9412 0.172346L27.0105 4.23169C27.6617 4.45073 28.1004 5.06112 28.1004 5.74822V18.0783C28.1004 25.7663 22.0108 31.9999 14.5004 31.9999C6.98999 31.9999 0.900391 25.7663 0.900391 18.0783V5.74432C0.900391 5.05912 1.33671 4.44997 1.98546 4.22945L13.9162 0.173993ZM21.4988 10.3759C21.3944 10.2799 21.2717 10.206 21.138 10.1585C21.0044 10.111 20.8626 10.091 20.721 10.0995C20.5795 10.108 20.4411 10.1449 20.3141 10.2081C20.1871 10.2712 20.0742 10.3593 19.982 10.4671L13.0764 18.4175L8.61559 13.4815C8.52128 13.3758 8.40667 13.2902 8.2786 13.2298C8.15052 13.1693 8.0116 13.1352 7.87008 13.1295C7.72856 13.1239 7.58735 13.1467 7.45485 13.1967C7.32235 13.2467 7.20126 13.3229 7.09879 13.4207C6.88901 13.6212 6.76551 13.8955 6.75446 14.1855C6.74341 14.4755 6.84567 14.7584 7.03959 14.9743L12.3036 20.7983C12.4039 20.911 12.5271 21.0009 12.665 21.062C12.803 21.1231 12.9524 21.1539 13.1032 21.1524C13.2541 21.1509 13.4028 21.1171 13.5395 21.0532C13.6762 20.9894 13.7976 20.897 13.8956 20.7823L21.5868 11.9279C21.7766 11.7084 21.8736 11.4237 21.8571 11.1341C21.8407 10.8444 21.7122 10.5725 21.4988 10.3759Z" fill="white"/>
</svg>
