<svg width="34" height="34" viewBox="0 0 34 34" fill="none" xmlns="http://www.w3.org/2000/svg">
<path d="M17 0C12.0568 0 8.03516 4.02163 8.03516 8.96484C8.03516 13.9081 12.0568 17.9297 17 17.9297C21.9432 17.9297 25.9648 13.9081 25.9648 8.96484C25.9648 4.02163 21.9432 0 17 0ZM17 15.9375C13.1553 15.9375 10.0273 12.8096 10.0273 8.96484C10.0273 5.12012 13.1553 1.99219 17 1.99219C20.8447 1.99219 23.9727 5.12012 23.9727 8.96484C23.9727 12.8096 20.8447 15.9375 17 15.9375Z" fill="white"/>
<path d="M28.154 23.7864C25.6996 21.2943 22.4459 19.9219 18.9922 19.9219H15.0078C11.5542 19.9219 8.30038 21.2943 5.84601 23.7864C3.40365 26.2663 2.05859 29.5397 2.05859 33.0039C2.05859 33.554 2.50458 34 3.05469 34H30.9453C31.4954 34 31.9414 33.554 31.9414 33.0039C31.9414 29.5397 30.5963 26.2663 28.154 23.7864ZM4.09461 32.0078C4.59365 26.3576 9.29761 21.9141 15.0078 21.9141H18.9922C24.7024 21.9141 29.4063 26.3576 29.9054 32.0078H4.09461Z" fill="white"/>
</svg>
