<svg width="128" height="48" viewBox="0 0 128 48" fill="none" xmlns="http://www.w3.org/2000/svg">
<path d="M44.2694 26.954H39.3476L46.7437 7.83914H51.4504L59.0078 26.954H53.9785L49.1374 14.2108L44.2694 26.954Z" fill="#1E1E1E"/>
<path d="M65.1702 7.83914V15.3987H68.2093C68.3886 14.1568 68.7741 13.0408 69.3658 12.0509C69.9575 11.061 70.7016 10.215 71.5981 9.51304C72.4946 8.81108 73.5166 8.27112 74.6641 7.89314C75.8295 7.51516 77.0846 7.32617 78.4294 7.32617C79.9176 7.32617 81.2982 7.56016 82.5712 8.02813C83.8442 8.4961 84.938 9.16206 85.8524 10.026C86.7847 10.89 87.5109 11.9429 88.0309 13.1848C88.5508 14.4088 88.8108 15.7857 88.8108 17.3156C88.8108 18.8275 88.5508 20.2134 88.0309 21.4733C87.5109 22.7153 86.7847 23.7862 85.8524 24.6862C84.938 25.5681 83.8442 26.2521 82.5712 26.738C81.2982 27.224 79.9176 27.467 78.4294 27.467C77.1026 27.467 75.8564 27.278 74.691 26.9C73.5435 26.504 72.5214 25.9461 71.6249 25.2261C70.7284 24.5062 69.9844 23.6422 69.3927 22.6343C68.801 21.6263 68.4065 20.5104 68.2093 19.2865H65.1702V26.954H60.598V7.83914H65.1702ZM72.9966 17.3156C72.9966 18.1795 73.1311 18.9805 73.4 19.7184C73.669 20.4384 74.0365 21.0594 74.5027 21.5813C74.9868 22.1033 75.5606 22.5173 76.224 22.8233C76.8874 23.1112 77.6225 23.2552 78.4294 23.2552C79.2362 23.2552 79.9714 23.1112 80.6348 22.8233C81.2982 22.5173 81.8719 22.1033 82.356 21.5813C82.8401 21.0594 83.2167 20.4384 83.4856 19.7184C83.7546 18.9805 83.8891 18.1795 83.8891 17.3156C83.8891 16.4876 83.7546 15.7137 83.4856 14.9937C83.2167 14.2738 82.8401 13.6618 82.356 13.1578C81.8899 12.6359 81.3161 12.2309 80.6348 11.9429C79.9714 11.6369 79.2362 11.4839 78.4294 11.4839C77.6225 11.4839 76.8874 11.6369 76.224 11.9429C75.5606 12.2309 74.9868 12.6359 74.5027 13.1578C74.0186 13.6618 73.6421 14.2738 73.3731 14.9937C73.1221 15.7137 72.9966 16.4876 72.9966 17.3156Z" fill="#1E1E1E"/>
<path d="M91.8529 26.954V7.83914H96.425V14.7777C96.6761 14.7777 96.9181 14.7867 97.1512 14.8047C97.4022 14.8047 97.6443 14.8137 97.8774 14.8317L103.714 7.83914H108.716L102.342 15.9117C103.149 16.3076 103.893 16.8206 104.574 17.4506C105.256 18.0625 105.874 18.8185 106.43 19.7184C106.986 20.6184 107.47 21.6713 107.882 22.8773C108.295 24.0652 108.644 25.4241 108.931 26.954H103.929C103.66 25.4961 103.319 24.2362 102.907 23.1742C102.512 22.1123 102.019 21.2484 101.428 20.5824C100.836 19.8984 100.128 19.4035 99.3028 19.0975C98.478 18.7735 97.5188 18.6295 96.425 18.6655V26.954H91.8529Z" fill="#1E1E1E"/>
<path d="M127.782 24.3082C126.939 25.2801 125.899 26.0541 124.662 26.63C123.425 27.188 121.999 27.467 120.386 27.467C118.915 27.467 117.553 27.224 116.297 26.738C115.06 26.2521 113.985 25.5681 113.07 24.6862C112.156 23.7862 111.438 22.7153 110.918 21.4733C110.399 20.2314 110.139 18.8635 110.139 17.3696C110.139 15.8397 110.399 14.4538 110.918 13.2118C111.456 11.9699 112.192 10.917 113.124 10.053C114.056 9.17106 115.15 8.4961 116.405 8.02813C117.66 7.56016 119.014 7.32617 120.466 7.32617C121.811 7.32617 123.129 7.56916 124.42 8.05513C125.729 8.5231 126.787 9.21606 127.593 10.134L124.474 13.2658C124.043 12.6719 123.478 12.2309 122.779 11.9429C122.08 11.6549 121.363 11.5109 120.628 11.5109C119.821 11.5109 119.077 11.6639 118.395 11.9699C117.732 12.2579 117.158 12.6629 116.674 13.1848C116.19 13.7068 115.813 14.3278 115.544 15.0477C115.275 15.7497 115.141 16.5236 115.141 17.3696C115.141 18.2335 115.275 19.0255 115.544 19.7454C115.813 20.4654 116.181 21.0864 116.647 21.6083C117.131 22.1123 117.705 22.5083 118.368 22.7963C119.032 23.0842 119.758 23.2282 120.547 23.2282C121.461 23.2282 122.259 23.0482 122.941 22.6883C123.622 22.3283 124.169 21.8603 124.581 21.2844L127.782 24.3082Z" fill="#1E1E1E"/>
<path d="M47.6284 33.8993V43.2002H46.6862V34.7664H41.8965V43.2002H40.9543V33.8993H47.6284Z" fill="#1E1E1E"/>
<path d="M51.0341 42.3595H55.9939V43.2002H50.0918V33.8993H55.8368V34.7401H51.0341V37.9455H55.5228V38.7731H51.0341V42.3595Z" fill="#1E1E1E"/>
<path d="M57.8364 33.8993H60.4537C60.9248 33.8993 61.3523 33.9519 61.7362 34.057C62.1201 34.1533 62.4472 34.3066 62.7177 34.5168C62.9969 34.7182 63.2106 34.9766 63.3589 35.2918C63.5073 35.5984 63.5814 35.9618 63.5814 36.3822C63.5814 36.8026 63.5029 37.1704 63.3459 37.4857C63.1975 37.7922 62.9838 38.0506 62.7046 38.2608C62.4342 38.4622 62.1026 38.6155 61.71 38.7206C61.3262 38.8257 60.8987 38.8782 60.4276 38.8782H58.7786V43.2002H57.8364V33.8993ZM58.7786 38.0769H60.3752C61.1168 38.0769 61.6795 37.9324 62.0634 37.6433C62.4472 37.3543 62.6392 36.9339 62.6392 36.3822C62.6392 35.8042 62.4385 35.3838 62.0372 35.1211C61.6446 34.8496 61.0906 34.7138 60.3752 34.7138H58.7786V38.0769Z" fill="#1E1E1E"/>
<path d="M66.3699 42.3595H71.3297V43.2002H65.4276V33.8993H71.1726V34.7401H66.3699V37.9455H70.8586V38.7731H66.3699V42.3595Z" fill="#1E1E1E"/>
<path d="M74.1145 43.2002H73.1722V33.8993H74.1145V43.2002ZM71.7196 32.0733C71.7196 31.8981 71.7807 31.7449 71.9028 31.6135C72.025 31.4734 72.1864 31.4033 72.387 31.4033C72.5877 31.4033 72.7491 31.4734 72.8712 31.6135C72.9934 31.7449 73.0544 31.8981 73.0544 32.0733C73.0544 32.2485 72.9934 32.4061 72.8712 32.5462C72.7491 32.6776 72.5877 32.7433 72.387 32.7433C72.1864 32.7433 72.025 32.6776 71.9028 32.5462C71.7807 32.4061 71.7196 32.2485 71.7196 32.0733ZM74.2322 32.0733C74.2322 31.8981 74.2933 31.7449 74.4154 31.6135C74.5376 31.4734 74.699 31.4033 74.8996 31.4033C75.1003 31.4033 75.2617 31.4734 75.3839 31.6135C75.506 31.7449 75.5671 31.8981 75.5671 32.0733C75.5671 32.2485 75.506 32.4061 75.3839 32.5462C75.2617 32.6776 75.1003 32.7433 74.8996 32.7433C74.699 32.7433 74.5376 32.6776 74.4154 32.5462C74.2933 32.4061 74.2322 32.2485 74.2322 32.0733Z" fill="#1E1E1E"/>
<path d="M78.3253 37.9192H78.7309C79.0276 37.9192 79.3198 37.8886 79.6077 37.8273C79.8956 37.766 80.1486 37.6696 80.3668 37.5382C80.5936 37.3981 80.7768 37.2186 80.9164 36.9996C81.056 36.7807 81.1258 36.5179 81.1258 36.2114C81.1258 35.6334 80.9426 35.1999 80.5761 34.9109C80.2097 34.6131 79.7299 34.4642 79.1366 34.4642C78.683 34.4642 78.2904 34.5781 77.9588 34.8058C77.636 35.0335 77.383 35.3269 77.1998 35.6859L76.467 35.1342C76.7549 34.635 77.13 34.2672 77.5924 34.0307C78.0635 33.7855 78.6044 33.6629 79.2151 33.6629C79.6339 33.6629 80.0178 33.7198 80.3668 33.8336C80.7245 33.9387 81.0298 34.0964 81.2828 34.3066C81.5358 34.5168 81.7321 34.7795 81.8717 35.0948C82.0113 35.4013 82.0811 35.756 82.0811 36.1589C82.0811 36.4304 82.0244 36.6843 81.911 36.9208C81.8063 37.1485 81.6623 37.3543 81.4791 37.5382C81.3046 37.7222 81.104 37.8798 80.8771 38.0112C80.659 38.1338 80.4366 38.2257 80.2097 38.287V38.3133C80.4715 38.3484 80.7419 38.414 81.0211 38.5104C81.309 38.598 81.5664 38.7293 81.7932 38.9045C82.0287 39.0796 82.2207 39.3073 82.369 39.5876C82.526 39.8679 82.6046 40.2138 82.6046 40.6254C82.6046 41.0546 82.5173 41.4443 82.3428 41.7946C82.1683 42.1362 81.9284 42.4295 81.6231 42.6748C81.3177 42.92 80.9557 43.1083 80.5369 43.2397C80.1268 43.371 79.6863 43.4367 79.2151 43.4367C78.7964 43.4367 78.4212 43.3885 78.0897 43.2922C77.7582 43.2046 77.4659 43.0776 77.2129 42.9112C76.9599 42.7361 76.7374 42.5303 76.5455 42.2938C76.3623 42.0486 76.2009 41.7815 76.0613 41.4924L76.8726 41.0064C76.9773 41.2516 77.0951 41.4749 77.226 41.6764C77.3656 41.869 77.5313 42.0354 77.7233 42.1756C77.9152 42.3157 78.1377 42.4252 78.3907 42.504C78.6524 42.5828 78.9534 42.6222 79.2937 42.6222C80.0527 42.6222 80.6372 42.4427 81.0473 42.0836C81.4573 41.7158 81.6623 41.2297 81.6623 40.6254C81.6623 40.2576 81.5838 39.9511 81.4268 39.7058C81.2697 39.4606 81.056 39.2679 80.7855 39.1278C80.5238 38.9789 80.2141 38.8782 79.8564 38.8257C79.5074 38.7644 79.1323 38.7337 78.7309 38.7337H78.3253V37.9192Z" fill="#1E1E1E"/>
<path d="M84.4373 43.2002V45.0263H83.4951V42.3332H84.6467L87.8005 33.8993H88.7166L91.8443 42.3332H92.9959V45.0263H92.0537V43.2002H84.4373ZM85.5889 42.3332H90.8759L88.2324 34.9503L85.5889 42.3332Z" fill="#1E1E1E"/>
<rect y="7.38477" width="20.3725" height="3.69231" fill="#3B5AFD"/>
<rect x="6.64319" y="15.3872" width="23.0298" height="3.69231" fill="#3B5AFD"/>
<rect x="12.4598" y="23.2617" width="7.81608" height="3.6923" fill="#3B5AFD"/>
<path fill-rule="evenodd" clip-rule="evenodd" d="M23.4726 7.38477H39.4914H40.4597H43.7701L35.6781 26.9465H34.9885V26.954H23.463V23.2617H32.9237L37.964 11.0771H23.4726V7.38477Z" fill="#FEB804"/>
</svg>
